
  <svg
    height="30"
    viewBox="0 0 361 100"
    fill="none"
    xmlns="http://www.w3.org/2000/svg"
  >
  <path   fill="currentColor" stroke="currentColor" strokeWidth="2" d="m70,16c0,20 -10,30 -20,30c10,0 20,10 20,30c0,-20 10,-30 20,-30c-10,0 -20,-10 -20,-30zm-40,-16c0,20 -10,30 -20,30c10,0 20,10 20,30c0,-20 10,-30 20,-30c-10,0 -20,-10 -20,-30zm13,42c0,20 -10,30 -20,30c10,0 20,10 20,30c0,-20 10,-30 20,-30c-10,0 -20,-10 -20,-30z" />
  <text  fill="currentColor" stroke="currentColor"  transform="matrix(2.8333420753479004,0,0,2.824115753173828,-209.00099658966064,-28.6038543034374) "  fontFamily="Helvetica, Arial, sans-serif" fontSize="24" y="35.83891" x="115.058822" >星星社</text>
  </svg>